<svg id="visual" viewBox="0 0 900 600" width="900" height="600" xmlns="http://www.w3.org/2000/svg" xmlns:xlink="http://www.w3.org/1999/xlink" version="1.1"><rect x="0" y="0" width="900" height="600" fill="#f9f9fa"></rect><defs><linearGradient id="grad1_0" x1="33.3%" y1="0%" x2="100%" y2="100%"><stop offset="20%" stop-color="#f9f9fa" stop-opacity="1"></stop><stop offset="80%" stop-color="#f9f9fa" stop-opacity="1"></stop></linearGradient></defs><defs><linearGradient id="grad2_0" x1="0%" y1="0%" x2="66.7%" y2="100%"><stop offset="20%" stop-color="#f9f9fa" stop-opacity="1"></stop><stop offset="80%" stop-color="#f9f9fa" stop-opacity="1"></stop></linearGradient></defs><g transform="translate(900, 0)"><path d="M0 243.4C-32.1 238.1 -64.3 232.9 -90.7 219C-117.1 205.1 -137.8 182.5 -161.2 161.2C-184.6 139.9 -210.7 119.8 -224.8 93.1C-239 66.5 -241.2 33.2 -243.4 0L0 0Z" fill="#ff9f63"></path></g><g transform="translate(0, 600)"><path d="M0 -243.4C32.8 -240.6 65.6 -237.9 93.1 -224.8C120.7 -211.8 143 -188.4 165.5 -165.5C187.9 -142.5 210.6 -120.1 223.6 -92.6C236.6 -65.1 240 -32.6 243.4 0L0 0Z" fill="#ff9f63"></path></g></svg>